<svg width="16" height="20" viewBox="0 0 16 20" xmlns="http://www.w3.org/2000/svg"><g fill="none" fill-rule="evenodd"><path d="M1 5v13.006c0 .548.446.994.994.994h12.012c.548 0 .994-.446.994-.994V5H1zm15-1v14.006c0 1.1-.895 1.994-1.994 1.994H1.994C.894 20 0 19.105 0 18.006V4h16z" fill="currentColor" fill-rule="nonzero"></path><path d="M5 7s-.005.5-.504.5C3.996 7.5 4 7 4 7V4c0-2.21 1.79-4 4-4s4 1.79 4 4v3s-.002.5-.5.5S11 7 11 7V4c0-1.657-1.343-3-3-3S5 2.343 5 4v3z" fill="currentColor"></path></g></svg>