<svg class="t-sociallinks__svg" width="23px" height="23px" viewBox="0 0 100 100" fill="none" xmlns="http://www.w3.org/2000/svg"> <path fill-rule="evenodd" clip-rule="evenodd" d="M34.5291 13.1879C30.3563 13.6696 28.64 13.9406 26.5874 14.4423C24.0554 15.061 21.6486 16.056 20.0275 17.1541C17.7609 18.6893 16.0287 21.0702 15.0524 23.9921C14.3541 26.0825 14.0989 27.4739 13.4849 32.5423L13.0539 36.0996L13.027 43.0963L13 50.093L13.296 50.0549C13.4587 50.0339 14.5666 49.9748 15.7578 49.9235C22.6598 49.6263 26.0732 49.3206 30.4229 48.6097C35.7155 47.7448 39.1675 46.4513 41.9257 44.2994C42.9015 43.5382 44.4097 41.958 45.1566 40.9146C45.9204 39.8474 47.0885 37.52 47.5732 36.0996C48.7365 32.6898 49.068 30.1236 49.7769 19.0338C49.9495 16.3344 50.1156 13.8725 50.1459 13.5629L50.2011 13L43.0871 13.0106C36.7903 13.0201 35.8071 13.0404 34.5291 13.1879ZM50.9089 13.1576C50.9089 13.5591 51.2844 20.1982 51.4091 22.0057C51.8691 28.6714 52.6207 33.3699 53.725 36.4824C54.4892 38.6363 55.7717 40.8499 57.2201 42.5152C58.9243 44.4743 61.4967 46.2049 64.2248 47.2275C67.2702 48.369 70.7649 48.8676 79.3364 49.3834C81.9616 49.5415 83.9388 49.6684 87.1103 49.8826L87.89 49.9353L87.9558 48.4483C88.0632 46.0184 87.9493 37.8831 87.7803 35.9195C87.5741 33.5227 87.2354 30.693 86.8642 28.2646C86.3753 25.0679 86.0073 23.7597 85.0655 21.8706C83.2608 18.251 80.0064 15.7817 75.5059 14.6169C73.9103 14.204 72.1977 13.9501 68.2361 13.5394C67.2682 13.439 66.0461 13.2766 65.5204 13.1785C64.6209 13.0105 64.1614 13 57.7366 13C51.294 13 50.9088 13.0089 50.9089 13.1576ZM13.0053 57.4381V64.0523L13.4122 67.4119C14.0595 72.755 14.4043 74.7031 15.0441 76.6311C16.256 80.2838 18.2471 82.8512 21.1726 84.5338C22.3152 85.1909 23.6307 85.6643 25.8654 86.223C28.6983 86.9312 30.2768 87.1784 32.9949 87.3398C37.4472 87.6043 49.6154 88.0772 49.7035 87.9892C49.7322 87.9606 49.7614 86.1011 49.7682 83.8572C49.7792 80.2535 49.7565 79.5143 49.5738 77.5257C48.981 71.0766 48.4106 67.5789 47.5102 64.8727C45.4649 58.7261 41.0439 54.5936 34.7522 52.9477C32.2689 52.298 29.1697 51.9339 22.4361 51.501C18.2108 51.2293 16.8355 51.1285 14.9907 50.9556C14.2214 50.8835 13.46 50.8243 13.2986 50.8241L13.0053 50.8239V57.4381ZM86.9622 50.9748C86.714 50.9905 85.5972 51.0644 84.4804 51.1393C83.3636 51.214 81.13 51.3565 79.5168 51.4558C70.4181 52.0163 66.8904 52.5318 63.894 53.7388C57.774 56.204 54.1259 60.9389 52.6786 68.2949C52.2089 70.6819 51.9403 72.9271 51.5416 77.7977C51.3034 80.7066 51.2698 81.5353 51.2698 84.4886V87.8592L57.6998 87.8098C63.9923 87.7613 65.2571 87.7154 68.1909 87.4284C71.6185 87.0931 75.2396 86.3951 77.3164 85.6693C81.477 84.2153 84.3692 81.332 85.823 77.1886C86.4293 75.4608 87.1021 72.2058 87.4473 69.3306C87.8823 65.7083 87.9972 63.0003 87.9987 56.3399L88 50.9139L87.7067 50.9301C87.5453 50.9391 87.2103 50.9592 86.9622 50.9748Z" fill="#000000"></path></svg>