<svg width="18" height="16" viewBox="0 0 18 16" xmlns="http://www.w3.org/2000/svg"><path d="M9 16c-.16 0-.32-.063-.442-.188L2.29 9.543C2.21 9.47 0 7.375 0 4.875 0 1.823 1.798 0 4.8 0 6.56 0 8.207 1.438 9 2.25 9.794 1.437 11.44 0 13.2 0 16.2 0 18 1.823 18 4.875c0 2.5-2.21 4.594-2.3 4.688l-6.258 6.25c-.12.124-.28.187-.442.187zm5.98-7.132c.105-.103.215-.216.356-.375.235-.264.467-.56.684-.88.618-.914.98-1.85.98-2.738C17 2.373 15.647 1 13.2 1c-1.098 0-2.358.795-3.485 1.95L9 3.68l-.715-.73C7.158 1.794 5.898 1 4.8 1 2.354 1 1 2.373 1 4.875 1 6.4 2.043 7.967 2.997 8.835L9 14.84l5.98-5.972z" fill="currentColor" fill-rule="nonzero"></path></svg>