<?xml version="1.0" encoding="iso-8859-1"?>
<!-- Generator: Adobe Illustrator 21.0.0, SVG Export Plug-In . SVG Version: 6.00 Build 0)  -->
<svg version="1.1" id="Layer_1" xmlns="http://www.w3.org/2000/svg" xmlns:xlink="http://www.w3.org/1999/xlink" x="0px" y="0px"
	 viewBox="0 0 100.355 100.352" style="enable-background:new 0 0 100.355 100.352;" xml:space="preserve">
<path d="M77.734,6.613H26.362c-3.444,0-6.246,2.802-6.246,6.246v8.839h-6.242v3h6.242v10.36h-6.242v3h6.242v10.361h-6.242v3h6.242
	v10.36h-6.242v3h6.242v10.36h-6.242v3h6.242v9.354c0,3.444,2.802,6.246,6.246,6.246h51.373c3.444,0,6.246-2.802,6.246-6.246V12.859
	C83.98,9.415,81.178,6.613,77.734,6.613z M23.116,87.493v-9.354h6.007v-3h-6.007v-10.36h6.007v-3h-6.007v-10.36h6.007v-3h-6.007
	V38.058h6.007v-3h-6.007v-10.36h6.007v-3h-6.007v-8.839c0-1.79,1.456-3.246,3.246-3.246h39.166v81.126H26.362
	C24.572,90.739,23.116,89.283,23.116,87.493z M80.98,87.493c0,1.79-1.456,3.246-3.246,3.246h-9.207V9.613h9.207
	c1.79,0,3.246,1.456,3.246,3.246V87.493z"/>
<g id="Layer_1_1_">
</g>
</svg>
