<svg class="t-sociallinks__svg" width="50px" height="50px" viewBox="0 0 100 100" fill="none" xmlns="http://www.w3.org/2000/svg"> <path d="M50.0621 50.4946C61.2444 50.4946 70.3094 41.4296 70.3094 30.2473C70.3094 19.065 61.2444 10 50.0621 10C38.8797 10 29.8147 19.065 29.8147 30.2473C29.8147 41.4296 38.8797 50.4946 50.0621 50.4946ZM50.0621 20.2863C55.5635 20.2863 60.023 24.7459 60.023 30.2473C60.023 35.7488 55.5635 40.2083 50.0621 40.2083C44.5606 40.2083 40.1011 35.7488 40.1011 30.2473C40.1011 24.7471 44.5606 20.2863 50.0621 20.2863ZM73.4004 52.9648C72.2568 50.6681 69.0916 48.7577 64.8833 52.0737C59.1965 56.5547 50.0609 56.5547 50.0609 56.5547C50.0609 56.5547 40.9253 56.5547 35.2384 52.0737C31.0313 48.7577 27.8649 50.6681 26.7213 52.9648C24.7284 56.9686 26.9797 58.9029 32.0613 62.165C36.4012 64.951 42.3644 65.9917 46.2162 66.3817L43.0019 69.596C38.4742 74.1237 34.1032 78.4947 31.0708 81.5271C29.2573 83.3394 29.2573 86.2797 31.0708 88.0932L31.6175 88.6399C33.4309 90.4534 36.3701 90.4522 38.1835 88.6399L50.1147 76.7087C54.6424 81.2364 59.0134 85.6075 62.0459 88.6399C63.8581 90.4534 66.7985 90.4534 68.6119 88.6399L69.1586 88.0932C70.9721 86.2797 70.9709 83.3406 69.1586 81.5271L57.2275 69.596L54.0024 66.3721C57.8567 65.975 63.7565 64.9295 68.0605 62.1662C73.1421 58.9041 75.3933 56.9686 73.4004 52.9648Z" fill="#fff"></path></svg>