<svg class="t-sociallinks__svg" width="50px" height="50px" viewBox="0 0 100 100" fill="none" xmlns="http://www.w3.org/2000/svg"> <path d="M90 25.6368C87.0903 27.091 83.8187 27.8187 80.5458 28.1819C83.8187 26 86.3639 23.0916 87.8181 19.091C84.5452 20.9097 81.2723 22.3639 77.2729 23.0903C74.3632 19.8174 70.0006 18 65.2735 18C56.1826 18 48.9103 25.2723 48.9103 34.3632C48.9103 35.8174 48.9103 36.9084 49.2735 37.9994C35.8187 37.2716 23.8193 30.7271 15.4561 20.9084C14.0019 23.4536 13.2742 25.9987 13.2742 29.2716C13.2742 35.0897 16.1838 39.8168 20.5464 42.7265C18.0013 42.7265 15.4561 41.9987 13.2742 40.5445V40.9078C13.2742 48.9078 18.729 55.4536 26.3645 56.9078C24.9103 57.271 23.4548 57.6355 22.0006 57.6355C20.9097 57.6355 19.8187 57.6355 19.091 57.2723C21.2729 63.8181 27.091 68.5452 34.3632 68.5452C28.9084 72.909 21.6361 75.4542 13.9994 75.4542C12.5452 75.4542 11.4542 75.4542 10 75.091C17.2723 79.8181 25.6368 82.3632 35.091 82.3632C65.2723 82.3632 81.6355 57.6368 81.6355 35.8187V33.6368C85.2729 31.8181 87.8181 28.9097 90 25.6368Z" fill="#fff"></path></svg>