<svg width="22" height="22" viewBox="0 0 22 22" xmlns="http://www.w3.org/2000/svg"><g fill-rule="nonzero" fill="currentColor"><path d="M11 21c5.523 0 10-4.477 10-10S16.523 1 11 1 1 5.477 1 11s4.477 10 10 10zm0 1C4.925 22 0 17.075 0 11S4.925 0 11 0s11 4.925 11 11-4.925 11-11 11z"></path><path d="M18.08 18.854c-.502-.617-1.156-1.143-1.974-1.612-.168-.096-.46-.248-.902-.47-.358-.18-.97-.483-.94-.466-.543-.295-.927-.56-1.117-.782l-.155-.824c1.625-.848 2.563-2.847 2.563-5.24 0-2.96-1.872-5.04-4.555-5.04S6.446 6.5 6.446 9.46c0 2.42.945 4.427 2.588 5.26l-.135.725c-.16.214-.7.595-1.188.865.032-.018-.567.28-.973.485-.4.2-.69.353-.856.45-.81.463-1.457.986-1.956 1.595.092.29.512.498.81.588.426-.507.973-.932 1.644-1.317.407-.233 1.794-.914 1.814-.925.352-.195 1.17-.694 1.504-1.143l.14-.186.315-1.69-.67-.34c-1.25-.633-2.04-2.272-2.04-4.365 0-2.472 1.49-4.04 3.555-4.04 2.067 0 3.555 1.568 3.555 4.04 0 2.07-.784 3.705-2.026 4.353l-.657.343.34 1.816.175.204c.33.385.884.73 1.4 1.01.024.01 1.413.69 1.82.924.697.398 1.26.838 1.69 1.368.468-.186.663-.403.782-.624z"></path></g></svg>